<svg width="158" height="60" viewBox="0 0 158 60" fill="none" xmlns="http://www.w3.org/2000/svg">
<path d="M19.3073 44.7663C19.3073 46.6409 19.9202 47.7225 22.0832 47.7225C23.9579 47.7225 24.5347 47.0375 24.8592 46.3886H30.375C29.5458 48.84 27.7433 52.2288 21.6867 52.2288C15.9546 52.2288 13.1786 48.1551 13.1786 43.9371C13.1786 39.3947 16.3511 34.7441 22.5159 34.7441C28.5364 34.7441 31.1681 38.89 31.1681 42.7835C31.1681 43.4684 31.096 44.1174 30.9518 44.7663H19.3073ZM25.1476 41.1972C25.1476 40.1878 24.6429 38.926 22.5519 38.926C20.5331 38.926 19.8841 40.1878 19.7039 41.1972H25.1476ZM45.4088 39.8994C44.4354 39.3226 43.5342 38.8539 42.0561 38.8539C41.0466 38.8539 40.2896 39.2505 40.2896 40.0075C40.2896 40.5123 40.6501 40.8728 41.8398 41.053C45.0123 41.5577 46.6706 43.3963 46.6706 46.3165C46.6706 49.5971 44.3273 52.2649 39.6407 52.2649C35.3866 52.2649 33.512 51.2555 31.6734 49.7053L34.0888 46.5688C34.918 47.2538 36.2879 48.1911 38.1265 48.1911C39.3883 48.1911 40.1093 47.7946 40.1093 46.9293C40.1093 46.1362 39.5325 45.6315 38.2347 45.4152C35.1703 44.9105 33.6922 43.18 33.6922 40.6925C33.6922 38.4934 35.0982 34.9965 41.2629 34.9965C43.9668 34.9965 45.7693 35.6093 47.2474 36.5466L45.4088 39.8994ZM54.6635 43.865C54.6635 45.307 55.6008 46.6409 57.5836 46.6409C59.3141 46.6409 60.1793 46.1002 61.1527 45.4512L60.1793 51.0031C59.1338 51.6881 57.5476 52.2288 55.4927 52.2288C50.5176 52.2288 48.1022 48.5516 48.1022 44.6221C48.1022 40.0075 51.3829 35.0325 57.6197 35.0325C60.0351 35.0325 61.6214 35.5012 62.811 36.0059L61.8737 41.4135C60.9724 40.9088 60.1433 40.4041 58.1605 40.4041C55.8892 40.4041 54.6635 42.2067 54.6635 43.865ZM77.045 43.2521C77.045 41.6298 75.9635 40.0436 73.7283 40.0436C71.2768 40.0436 69.979 41.9543 69.979 43.7568C69.979 45.3791 71.0605 46.9654 73.2957 46.9654C75.7472 46.9654 77.045 45.0547 77.045 43.2521ZM84.0749 35.1046L81.1188 51.8323H75.6029L75.7832 50.7868C74.8459 51.5439 73.5841 52.1928 71.1326 52.1928C66.3378 52.1928 63.8503 48.4074 63.8503 44.4058C63.8503 39.8633 67.0228 35.0325 73.4759 35.0325C75.9995 35.0325 77.4415 35.6814 78.3068 36.3303L78.5591 35.1046H84.0749ZM84.5991 51.8323L87.5553 35.2488H93.7921L93.5397 36.5827C94.5852 35.7896 96.2796 34.9604 99.4521 34.9604C102.372 34.9604 103.778 35.9698 104.643 36.9432C105.797 35.9698 107.419 34.9604 110.159 34.9604C113.873 34.9604 116.252 36.9432 116.252 40.332C116.252 40.7646 116.216 41.2693 116.108 41.774L114.341 51.8323H108.14L109.835 42.2788C109.943 41.5938 109.943 41.4496 109.943 41.2693C109.943 40.2238 109.294 39.1423 107.636 39.1423C105.761 39.1423 104.607 40.7286 104.391 41.9903L102.625 51.8323H96.3517L98.0101 42.2788C98.1543 41.5577 98.1903 41.3414 98.1903 41.0891C98.1903 40.0075 97.6135 39.1784 95.847 39.1784C93.9363 39.1784 92.8187 40.4402 92.5664 41.9182L90.8359 51.8323H84.5991ZM116.62 59.2588L120.91 35.1767H126.426L126.245 36.1861C127.255 35.393 128.697 34.8162 130.571 34.8162C135.799 34.8162 138.431 38.7458 138.431 42.8195C138.431 47.2898 135.33 51.9765 129.165 51.9765C126.029 51.9765 124.839 51.2915 123.686 50.4984L122.172 59.2588H116.62ZM132.194 43.1079C132.194 41.4856 131.112 39.8994 128.877 39.8994C126.426 39.8994 125.128 41.8101 125.128 43.6126C125.128 45.2349 126.209 46.8212 128.444 46.8212C130.896 46.8212 132.194 44.9105 132.194 43.1079ZM157.957 42.9637C157.957 47.7585 154.64 52.3009 148.331 52.3009C142.491 52.3009 139.715 48.2632 139.715 44.0813C139.715 39.5028 143.032 34.7441 149.341 34.7441C155.073 34.7441 157.957 38.7818 157.957 42.9637ZM152.117 43.2882C152.117 41.6298 151.107 40.0436 149.052 40.0436C146.781 40.0436 145.591 41.9182 145.591 43.7208C145.591 45.4152 146.637 46.9654 148.692 46.9654C150.963 46.9654 152.117 45.0907 152.117 43.2882Z" fill="white"/>
<path fill-rule="evenodd" clip-rule="evenodd" d="M10.1258 3.67773H22.3374H22.6022H27.1518C33.8493 3.67773 39.7142 8.17019 41.4585 14.6365C41.9993 16.6414 41.9998 18.7554 41.4607 20.7608C39.7164 27.2498 33.832 31.7661 27.1127 31.7661H22.7452V31.7666H10.1258V17.622V17.5189V3.67773ZM11.2712 17.5702C16.6256 18.0519 21.0159 21.8781 22.3374 26.9439V7.71512C21.229 13.0094 16.7645 17.0701 11.2712 17.5702ZM36.017 14.7707C36.017 16.438 34.6654 17.7896 32.9981 17.7896C31.3309 17.7896 29.9793 16.438 29.9793 14.7707C29.9793 13.1035 31.3309 11.7519 32.9981 11.7519C34.6654 11.7519 36.017 13.1035 36.017 14.7707ZM6.10352e-05 51.5382C5.59133 51.5382 10.124 47.0056 10.124 41.4143V31.7506C4.53268 31.7506 6.10352e-05 36.2832 6.10352e-05 41.8745V51.5382Z" fill="white"/>
<circle cx="51.8368" cy="17.7844" r="4.89915" fill="white"/>
<circle cx="63.1335" cy="6.5322" r="6.5322" fill="white"/>
</svg>
