<svg width="201" height="75" viewBox="0 0 201 75" fill="none" xmlns="http://www.w3.org/2000/svg">
<path d="M24.4929 56.1495C24.4929 58.5276 25.2704 59.8996 28.0144 59.8996C30.3926 59.8996 31.1243 59.0307 31.5359 58.2075H38.5332C37.4813 61.3174 35.1946 65.6164 27.5114 65.6164C20.2397 65.6164 16.7182 60.4484 16.7182 55.0976C16.7182 49.3352 20.7428 43.4355 28.5632 43.4355C36.2008 43.4355 39.5393 48.6949 39.5393 53.6341C39.5393 54.5031 39.4479 55.3263 39.2649 56.1495H24.4929ZM31.9018 51.6218C31.9018 50.3413 31.2615 48.7406 28.609 48.7406C26.0479 48.7406 25.2247 50.3413 24.996 51.6218H31.9018ZM57.6049 49.9754C56.37 49.2437 55.2267 48.6492 53.3516 48.6492C52.0711 48.6492 51.1107 49.1522 51.1107 50.1126C51.1107 50.7529 51.568 51.2102 53.0772 51.4389C57.1018 52.0792 59.2055 54.4116 59.2055 58.116C59.2055 62.2778 56.2328 65.6621 50.2875 65.6621C44.8909 65.6621 42.5127 64.3815 40.1803 62.415L43.2445 58.4362C44.2963 59.3051 46.0342 60.4942 48.3666 60.4942C49.9673 60.4942 50.882 59.9911 50.882 58.8935C50.882 57.8874 50.1503 57.2471 48.5038 56.9727C44.6165 56.3324 42.7414 54.1372 42.7414 50.9816C42.7414 48.1918 44.525 43.7556 52.3455 43.7556C55.7755 43.7556 58.0622 44.5331 59.9373 45.7222L57.6049 49.9754ZM69.3452 55.0061C69.3452 56.8355 70.5343 58.5276 73.0496 58.5276C75.2448 58.5276 76.3424 57.8416 77.5773 57.0184L76.3424 64.0614C75.0162 64.9303 73.0039 65.6164 70.3971 65.6164C64.0858 65.6164 61.0217 60.9515 61.0217 55.9665C61.0217 50.1126 65.1834 43.8014 73.0954 43.8014C76.1595 43.8014 78.1718 44.3959 79.681 45.0362L78.4919 51.8962C77.3486 51.256 76.2967 50.6157 73.7814 50.6157C70.9001 50.6157 69.3452 52.9024 69.3452 55.0061ZM97.738 54.2287C97.738 52.1706 96.3659 50.1584 93.5305 50.1584C90.4206 50.1584 88.7742 52.5822 88.7742 54.8689C88.7742 56.9269 90.1462 58.9392 92.9817 58.9392C96.0915 58.9392 97.738 56.5153 97.738 54.2287ZM106.656 43.8928L102.906 65.1133H95.9086L96.1373 63.787C94.9482 64.7474 93.3475 65.5706 90.2376 65.5706C84.1551 65.5706 80.9994 60.7686 80.9994 55.6921C80.9994 49.9297 85.024 43.8014 93.2103 43.8014C96.4117 43.8014 98.241 44.6246 99.3386 45.4478L99.6588 43.8928H106.656ZM107.321 65.1133L111.071 44.0758H118.983L118.663 45.7679C119.989 44.7618 122.139 43.7099 126.163 43.7099C129.868 43.7099 131.651 44.9905 132.749 46.2253C134.212 44.9905 136.27 43.7099 139.746 43.7099C144.457 43.7099 147.475 46.2253 147.475 50.5242C147.475 51.073 147.429 51.7133 147.292 52.3536L145.051 65.1133H137.185L139.335 52.9939C139.472 52.1249 139.472 51.942 139.472 51.7133C139.472 50.387 138.649 49.015 136.545 49.015C134.167 49.015 132.703 51.0273 132.429 52.628L130.188 65.1133H122.23L124.334 52.9939C124.517 52.0792 124.563 51.8048 124.563 51.4846C124.563 50.1126 123.831 49.0608 121.59 49.0608C119.166 49.0608 117.748 50.6614 117.428 52.5365L115.233 65.1133H107.321ZM147.942 74.5344L153.384 43.9843H160.381L160.153 45.2649C161.433 44.2587 163.263 43.527 165.641 43.527C172.272 43.527 175.611 48.5119 175.611 53.6799C175.611 59.3508 171.678 65.2962 163.857 65.2962C159.878 65.2962 158.369 64.4273 156.906 63.4211L154.985 74.5344H147.942ZM167.699 54.0457C167.699 51.9877 166.327 49.9754 163.491 49.9754C160.381 49.9754 158.735 52.3993 158.735 54.686C158.735 56.744 160.107 58.7563 162.942 58.7563C166.052 58.7563 167.699 56.3324 167.699 54.0457ZM200.382 53.8628C200.382 59.9454 196.174 65.7078 188.171 65.7078C180.762 65.7078 177.24 60.5856 177.24 55.2805C177.24 49.4724 181.448 43.4355 189.451 43.4355C196.723 43.4355 200.382 48.5577 200.382 53.8628ZM192.973 54.2744C192.973 52.1706 191.692 50.1584 189.085 50.1584C186.204 50.1584 184.695 52.5365 184.695 54.8232C184.695 56.9727 186.021 58.9392 188.628 58.9392C191.509 58.9392 192.973 56.5611 192.973 54.2744Z" fill="#FF7A68"/>
<path fill-rule="evenodd" clip-rule="evenodd" d="M28.3369 4.66549H34.4445C42.9407 4.66549 50.3808 10.3645 52.5936 18.5676C53.2797 21.111 53.2803 23.7928 52.5964 26.3368C50.3836 34.5686 42.9188 40.2979 34.3948 40.2979H28.8542V40.2985H12.8455L12.8454 22.355V4.66551H28.3369V4.66549ZM14.2986 22.2892C21.091 22.9003 26.6605 27.7542 28.3369 34.1806V9.78711C26.9308 16.5034 21.2673 21.6549 14.2986 22.2892ZM45.6906 18.738C45.6906 20.853 43.976 22.5676 41.8609 22.5676C39.7459 22.5676 38.0313 20.853 38.0313 18.738C38.0313 16.6229 39.7459 14.9083 41.8609 14.9083C43.976 14.9083 45.6906 16.6229 45.6906 18.738ZM0.000119209 65.3803C7.09311 65.3803 12.8431 59.6303 12.8431 52.5373V40.2781C5.75013 40.2781 0.000119209 46.0281 0.000119209 53.1211V65.3803Z" fill="#FF7A68"/>
<circle cx="65.7593" cy="22.5609" r="6.21498" fill="#FF7A68"/>
<circle cx="80.09" cy="8.28664" r="8.28664" fill="#FF7A68"/>
</svg>
