<svg width="64" height="64" viewBox="0 0 64 64" fill="none" xmlns="http://www.w3.org/2000/svg">
<rect width="64" height="64" rx="8" fill="#2388FF"/>
<path d="M12.8072 22.1217L32 31.7169L51.1928 22.1217C51.1217 20.8988 50.5858 19.7493 49.6948 18.9086C48.8037 18.068 47.625 17.5999 46.4 17.6001H17.6C16.375 17.5999 15.1963 18.068 14.3052 18.9086C13.4142 19.7493 12.8782 20.8988 12.8072 22.1217V22.1217Z" fill="white"/>
<path d="M51.2 27.4832L32 37.0832L12.8 27.4832V41.6C12.8 42.873 13.3057 44.0939 14.2059 44.9941C15.106 45.8942 16.3269 46.4 17.6 46.4H46.4C47.673 46.4 48.8939 45.8942 49.7941 44.9941C50.6943 44.0939 51.2 42.873 51.2 41.6V27.4832Z" fill="white"/>
</svg>
