<svg width="64" height="64" viewBox="0 0 64 64" fill="none" xmlns="http://www.w3.org/2000/svg">
<rect width="64" height="64" rx="8" fill="#2388FF"/>
<path fill-rule="evenodd" clip-rule="evenodd" d="M51.2001 32C51.2001 37.0922 49.1772 41.9758 45.5765 45.5765C41.9758 49.1772 37.0922 51.2001 32 51.2001C26.9079 51.2001 22.0243 49.1772 18.4236 45.5765C14.8229 41.9758 12.8 37.0922 12.8 32C12.8 26.9079 14.8229 22.0243 18.4236 18.4236C22.0243 14.8229 26.9079 12.8 32 12.8C37.0922 12.8 41.9758 14.8229 45.5765 18.4236C49.1772 22.0243 51.2001 26.9079 51.2001 32ZM46.4001 32C46.4001 34.3832 45.8217 36.6296 44.7969 38.6096L41.1392 34.9496C41.6869 33.2545 41.7517 31.4404 41.3264 29.7104L45.0752 25.9616C45.9249 27.7977 46.4001 29.84 46.4001 32ZM34.004 41.3913L37.796 45.1833C35.9697 45.9874 33.9956 46.4018 32 46.4001C29.9149 46.4026 27.8542 45.9505 25.9616 45.0752L29.7104 41.3264C31.1185 41.6715 32.5863 41.6936 34.004 41.3913ZM22.7792 34.6808C22.307 33.0546 22.273 31.3324 22.6808 29.6888L22.4888 29.8808L18.8168 26.2016C18.0124 28.0288 17.5979 30.0037 17.6 32C17.6 34.2896 18.1352 36.4544 19.0856 38.3768L22.7816 34.6808H22.7792ZM25.3904 19.2008C27.4334 18.1449 29.7004 17.5958 32 17.6C34.2896 17.6 36.4544 18.1352 38.3768 19.0856L34.6808 22.7816C32.8383 22.245 30.8772 22.2725 29.0504 22.8608L25.3904 19.2032V19.2008ZM36.8 32C36.8 33.2731 36.2943 34.494 35.3942 35.3942C34.494 36.2943 33.2731 36.8 32 36.8C30.727 36.8 29.5061 36.2943 28.6059 35.3942C27.7058 34.494 27.2 33.2731 27.2 32C27.2 30.727 27.7058 29.5061 28.6059 28.6059C29.5061 27.7058 30.727 27.2 32 27.2C33.2731 27.2 34.494 27.7058 35.3942 28.6059C36.2943 29.5061 36.8001 30.727 36.8 32Z" fill="white"/>
</svg>
