<svg width="64" height="64" viewBox="0 0 64 64" fill="none" xmlns="http://www.w3.org/2000/svg">
<rect width="64" height="64" rx="8" fill="#2388FF"/>
<path d="M12.8 15.2C12.8 14.5635 13.0529 13.9531 13.503 13.503C13.9531 13.0529 14.5635 12.8 15.2 12.8H20.3672C20.9353 12.8003 21.4849 13.0021 21.9182 13.3695C22.3515 13.7369 22.6405 14.246 22.7336 14.8064L24.5096 25.4504C24.5945 25.9574 24.5144 26.4781 24.2811 26.9361C24.0478 27.3941 23.6736 27.7651 23.2136 27.9945L19.4984 29.8496C20.8307 33.1512 22.8148 36.1503 25.3323 38.6678C27.8498 41.1853 30.8489 43.1694 34.1504 44.5016L36.008 40.7865C36.2373 40.3269 36.6079 39.9531 37.0654 39.7198C37.5229 39.4865 38.0431 39.4061 38.5497 39.4904L49.1936 41.2665C49.7541 41.3596 50.2632 41.6486 50.6306 42.0819C50.998 42.5152 51.1998 43.0648 51.2001 43.6329V48.8C51.2001 49.4366 50.9472 50.047 50.4971 50.4971C50.047 50.9472 49.4366 51.2001 48.8 51.2001H44C26.7681 51.2001 12.8 37.232 12.8 20V15.2Z" fill="white"/>
</svg>
